<?xml version="1.0" encoding="UTF-8"?>
<svg id="Layer_1" data-name="Layer 1" xmlns="http://www.w3.org/2000/svg" viewBox="0 0 180 180">
  <defs>
    <style>
      .cls-1 {
        fill: #000;
      }

      .cls-1, .cls-2 {
        stroke-width: 0px;
      }

      .cls-2 {
        fill: red;
      }
    </style>
  </defs>
  <rect class="cls-1" x="5" y="5" width="170" height="170" rx="85" ry="85"/>
  <path class="cls-2" d="M134.71,125.72l-2.79,3.33-2.6,3.49-2.99,3.16-1.35,1.21-2.36,2.02-2.32.38-1.67-.4-2.68-1.58-3.85-2.57-4.34-3.97-2.77-2.66-4.17-4.17-3.92-3.29-2.29-1.25-1.86-.56-1.77.52-2.72,2.05-1.48,1.76-2.66,2.77-6.8,9.3-2.82,2.97-1.48,1.76-2.69,2.41-2.68.42-3.2-1.35-4.11-3.45-4.93-4.47-2.97-2.82-4.64-3.22-2.97-2.82-1.04-1.54-2.05-2.72-.42-2.68,1.91-3.07,2.6-3.49,2.43-3.3,7.16-7.34,2.27-3.1.99-1.17,1.52-3.4-.42-2.68-2.19-2.17-12.92-10.84-2.97-2.82-1.76-1.48-2.28-3.25-.78-2.65,1.74-2.87,1.28-1.93,2.99-3.16,2.86-2.61,2.82-2.97,3.72-5.22,3.18-3,2.89-2.25,2.68-.42,2.87,1.74,4.89,4.11,6.13,5.81,6.79,5.03,2.68,1.58,1.7.76,2.13-.55,2.2-1.83,2.5-2.58,2.27-3.1,6.34-8.36,4.11-4.89,2.53-2.22,2.1-.91,1.64.04,2.12,1.45,1.53.95,2.77,2.66,4.4,4.69,3.13,2.63,4.83,3.39,4.5,3.78,1.82,2.2.71,1.93-.37,2.03-1.58,2.68-5.59,6.66-2.82,2.97-4.17,4.17-2.1,2.91-1.31,1.57-1.22,2.65-.37,2.03.68,1.57,1.82,2.2,4.7,3.94,10.67,7.95,2.97,2.82,1.4,1.51,2.22,2.53.45,3.04-1.32,3.56-2.79,3.33-4.3,4.73ZM55.26,57.39l1.46,2.23.04-1.64-.62-.85-.88.26ZM48,67.64l-.03-.36-.92-.1.03.36.59.49.33-.39ZM52.52,65.43l-.06-.72-.72.06-.33.39.2.16.03.36.56.13.33-.39ZM55.05,63.22l-.03-.36-.72.06-.16.2.03.36.72-.06.16-.2ZM53.8,65.5l.09,1.08.78.66,4.52-2.21-4.58-.51-.82.98ZM51.82,69.85l.27-1.11-.2-.16-.56-.13-.66.78.09,1.08,1.05-.45ZM58.95,60.15l.06.72.75.3.66-.78-.95-.46-.52.23ZM59.76,63.17l-.98-.82-.92-.1.32,1.6,1.28.07.3-.75ZM55.97,71.66l1.83.2-1.01-1.18-1.53-.95-.26-.88-1.34-.79,1.07,1.9.36-.03.88,1.74ZM53.78,71.49l-.59-.49-1.05.45.26.88.56.13.82-.98ZM57.95,67.32l.29,1.24,1.44-.13-.04,1.64.95-1.53-2.65-1.22ZM61.52,64.65l-.1.92,3.3.44-.03-.36-2.65-1.22-.52.23ZM63.27,70.12l.92-1.89-1.24-1.71-.36.03-.2-.16-.92-.1-.46.95,2.25,2.89ZM55.8,73.85l1.73,1.12-.45-1.05-.59-.49-.69.42ZM65.74,65.18v2s1.07,1.9,1.07,1.9l.88-.26.56-1.86-1.24-1.71-1.28-.07ZM59.37,73.18l-.36.03-.13.56.59.49.69-.42-.78-.66ZM59.09,78.28l-.95-.46,1.22-2.65-2.82.97,1.27,2.07,1.28.07ZM68,64.08l1.89,2.92.52,1.77-1.48,1.76-4.98,1.16-.27,1.11.85,1.38,2.29-.74-.26-.88.85-.62,1.76,1.48,1.96-.35.3-.75-.42-.69-.69.42-.59-.49,1.52-3.4-.26-.88.76-1.7-3.76-1.49ZM63.04,71.59l-.72.06-.1.92.59.49.23-1.47ZM62.66,75.61l.88-.26.39.33,3.04-.45-.06-.72-5.07.08-.43,1.31.39.33.72-.06.13-.56ZM62.78,79.05l-.42-.69.1-.92-.95-.46-1.08.09-1.78,2.51.39.33,3.24-.28.49-.59ZM64.59,76.89l-.07,1.28-.85.62.06.72.72-.06,1.31-1.57-.13-1.44-1.05.45ZM86.67,107.43l.17-2.19,1.18-1.01-.98-.82-1.21.65.2.16-.75-.3-.32-1.6.52-.23.23-1.47-.75-.3-.85.62-.39-.33.16-.2-.78-.66.49-.59-.23-.52,1.81-2.15.95.46.33-.39-.06-.72-.56-.13.33-.39-.29-1.24-.88.26-.82.98-.59-.49-.06-.72.85-.62-.09-1.08-.98-.82.63-1.14-.46.95,1.96,1.64.33-.39-.26-.88-.78-.66-.16-1.8.95-1.53,1.08-.09,1.02-.81.92.1.13,1.44-.16.2-.36.03.03.36.2.16.88-.26.62.85-1.45,4.12.52-.23-.16.2-.13.56.88-.26.16-.2-.03-.36-.2-.16-.36.03,1.67-1.6.72-.06,2.09,1.09.35,1.96,1.28.07.13-.56.72-.06.39.33,1.57-.68-.26-.88-6.8-3.03-.55-2.13,1.19-3.01-.45-1.05-1.28-.07-1.02.81-1.95-3.64-1.71,1.24-1.76-1.48-.36.03.13-.56,1.21-.65.59-1.5-.2-.16-.03-.36-.39-.33,1.41-.49-.95-.46-.85.62-1.21-1.35-1.99-2-.06-2.72-.98-.82.63-1.14-1.11-.27-.85.62-.36.03-.78-.66-.49-1.41-.63,1.14.75,2.29-3.15,1.36.59.49,3.63.04.78.66-7.23.27-.27,1.11-1.84,1.79,1.2,3.34,2.32-.38,1.14.63-3.15,1.36.26.88-.92,1.89-2.92,1.89-.92-.1-1.57-1.31.1-.92.88-.26.49-.59-.06-.72-2.49.58-.16-1.8-.2-.16-1.24.29-.49.59-.72.06-.3.75,6.3,5.62.49-.59,1.41-.49-.27,1.11,1.4,3.51,1.02-.81-.94-2.46.3-.75-.32-1.6,1.78-2.51,1.64.04.63-1.14.39.33,1.67-1.6.4-1.67-.45-1.05-.92-.1-.2-.16,1.02-2.81,1.57-.68.85,1.38-.46.95-.72.06-.33.39,5.82.22.16-.2.42.69-.69.42-.46.95.2.16-.66.78.06.72-.33.39-2.88.25-1.51,1.4.98.82.49,1.41.95.46.88-.26.66-.78-.03-.36.92.1.66-.78-.52-1.77.85-.62.13-.56,1.27,2.07v2s-1.16,1.37-1.16,1.37l-3.6.31-.63,1.14,1.21,1.35.92.1-1.41.49-1.76-1.48-1.05.45-.63,1.14-1.05.45-.42-.69,1.02-2.81-3.21.64-.23-.52-.72.06-.13.56.75.3.65,1.21-.1.92.42.69.56.13.09,3.08,2.76-3.69,2.75.3-.33.39.03.36-1.28-.07-1.64,1.96.88,1.74-.13.56-1.02.81-.27,1.11,1.47.23,1.15-1.37.36-.03.81,1.02-.07,1.28-1.38.85.95.46,1.21-.65.65,1.21-.79,1.34-.2-.16-.52.23-1.11-.27-1.05.45-.98-.82-.85.62.42.69.95.46-.44,3.3-1.28-.07-.43,1.31,2.59-1.5.04-1.64.52-.23-.26-.88-.75-.3.66-.78,1.11.27.85-.62-.95,1.53.38,2.32.59.49.49-.59.07-1.28.33-.39.95.46.49-.59-.26-.88.52-.23.56.13.32,1.6-.52.23-.76,1.7-2.26,1.1-.63,1.14,1.93-.71,1.4,1.51,2.13-.55.3-.75.88-.26.06.72.72-.06.66-.78ZM72.01,70.44l-.13.56.59.49.36-.03-.45-1.05-.36.03ZM67.17,79.39l.23.52.56.13.66-.78-.06-.72-.56-.13-.69.42-.13.56ZM77.9,79.72l.75.3.69-.42.13-.56-.95-.46-.85.62.23.52ZM97.07,60.45l-.46.95.26.88,1.87-1.43-.42-.69-1.24.29ZM99.3,58.98l-.13.56.59.49.36-.03.33-.39-.78-.66-.36.03ZM108.74,83.92l.33-.39,1.24-.29.49-.59-3.44.12-1.72-3.11-.34,4.38-.66.78-1.07-3.9.89-2.25-.29-1.24-2.74-2.3-3.34,1.2.22,2.52-.63,1.14-1.36-3.15-2.81-1.02-2.25-2.89.49-.59-.23-.52.46-.95,1.96-.35-.1.92.78.66.88-.26-.58-2.49,1.96-.35-.29-1.24-.59-.49-.06-.72-.95-.46-.46.95-.69.42-2.23,1.46-.7,2.42-1.71,1.24.59.49.49,1.41-.16.2-.95-.46-3.51,1.4.81,1.02,5.01-.8,1.93,1.28.55,2.13,1.34.79-.33.39,1.6,1.67,1.67.4,1.05-.45.1-.92.16-.2,3.01,1.19.49,1.41-1.35,1.21-.78-.66-.06-.72-.75-.3-.28,5.1,1.57,1.31.33-.39.36-.03,2.17-2.18,1.47.23,2.26-1.11.59.49.36-.03.27-1.11-.62-.85.16-.2-.03-.36ZM68.01,101.45l2.48,1.42.36-.03.16-.2,2.41,2.69.56.13.52-.23-2.44-5.05.27-1.11-1.34-.79-1.15,1.37.75.3.69-.42.2.16-1.38.85-.2-.16-.33.39-.03-.36-.16.2-.92-.1-.59-.49.13-.56-.56-.13-.52.23-.5,2.58.92.1.66-.78ZM105.47,54.82l.03.36.39.33.56.13.16-.2-.03-.36-.2-.16-.92-.1ZM97.58,64.21l.31,3.6.59.49,2.23-1.46-.26-.88-2.71-1.94-.16.2ZM101.55,61.87l-2.26,1.1-.23,1.47.82-.98,1.17.99,1.47.23-.97-2.82ZM89.49,77.44l-.95-.46-1.71,1.24.23.52.75.3,1.54-1.04.13-.56ZM108.58,53.09l.23.52.88-.26.82-.98.75.3.88-.26-2.09-1.09-1.48,1.76ZM73.55,96.43l1.24-.29-.62-.85-.75-.3.13,1.44ZM106.86,58.32l-.62-.85-1.08.09.03.36,1.01,1.18.66-.78ZM63.46,109.64l1.12-1.73-.92-.1-.16.2-.36.03-.85.62.26.88.92.1ZM109.09,56.86l.33-.39-.98-.82-1.08.09.45,1.05,1.31.43-.03-.36ZM104.24,59.46l-.49.59.06.72,1.31-1.57-.88.26ZM67.77,104.91l.04-1.64-2,1.99.42.69.72-.06.82-.98ZM53.77,121.19l-.26-.88-.36.03-.3.75.59.49.33-.39ZM103.84,61.12l-1.12,1.73,1.71-1.24-.59-.49ZM73.02,100.65l2.07-1.27.59-1.5-1.14-.63-1.35,1.21-.17,2.19ZM101.26,70.97l-.42-.69-.92-.1-.39-.33-.36.03-.26-.88-.88.26-.1.92,2.84,1.38.49-.59ZM91.81,79.05l-.88.26-.49.59-.75-.3-.69.42-.56,1.86.75.3.66-.78,2.84,1.38-.48-3.4.52-.23-.06-.72-.56-.13-.3.75ZM59.12,118.01l-.26-.88-1.41.49-.3.75.23.52.72-.06,1.02-.81ZM81.66,89.55l.85,1.38-.69.42-1.64-.04,1.48-1.76ZM107.71,59.7l.03.36-1.74.88-.17,2.19,3.81-4.14-1.93.71ZM63.16,112.39l1.37,1.15.72-.06,1.57,1.31,6.34-6.36.2-1.83-4.07,5.25-1.08.09-.98-.82.46-.95-1.53-.95-2.99,3.16ZM69.6,105.12l.23.52.88-.26.13-.56-.78-.66-.46.95ZM103.5,65.51l.36-.03.66-.78-.03-.36-.56-.13-.66.78.23.52ZM102.94,67.37l-1.14-.63-.49.59.06.72.56.13.42.69-.53,2.22.68,1.57.36-.03.16-.2-.08-5.07ZM99.12,73.51l-.23-.52-.56-.13-.69.42.03.36.78.66.36-.03.3-.75ZM56.32,123.33l.92.1,1.15-1.37-.2-.16-.36.03-.33.39-1.24.29.06.72ZM84.54,89.3l-.63,1.14.63-1.14ZM112.17,56.77l-.13.56.39.33.72-.06-.06-.72-.39-.33-.16.2-.36.03ZM114.17,54.78l1.64.04.85-.62-.03-.36-.39-.33-2.07,1.27ZM69.55,108.75l.75.3-.03-.36-.62-.85-.33.39.23.52ZM117.32,51.42l-.1.92.72-.06.1-.92-.72.06ZM57.2,123.07l.03.36-.2-.16.16-.2ZM56.54,125.85l-.23-.52-.39-.33-.85.62.59.49.72-.06.16-.2ZM112.36,58.93l-1.08.09-.66.78,2.24,4.88.47-4.94-.98-.82ZM64.62,116.62l.13-.56-.2-.16-.72.06.03.36-.16.2.92.1ZM87.05,91.07l-1.38.85,1.24,1.71.2.16.66-.78-.05-4.71-1.35,1.21.68,1.57ZM105.33,67.71l-.85.62.95.46.85-.62-.95-.46ZM109.62,64.97l-1.8.16,1.34.79,1.58-2.68-1.24.29.13,1.44ZM110.04,76l-.72.06-1.93-1.28-.35-1.96-1.21-1.35.17-2.19-2.29.74.38,2.32,1.08-.09.62.85-1.48,1.76.35,1.96.95.46.49-.59-.42-.69.49-.59.72-.06,2.87,1.74.85-.62,1.89.92,1.49-3.76-3.97,2.34ZM63.99,119.76l1.41-.49.3-.75-1.14-.63-.52.23-.46.95.42.69ZM114.39,59.3l.06.72.36-.03.2.16.16-.2-.03-.36-.75-.3ZM96.41,90.25l1.5.59,1.01,1.18,1.47.23.85-.62.49,1.41.36-.03.16-.2-.06-.72-.62-.85.16-.2-1.67-.4-.42-.69-.72.06-.2-.16-.16.2-1.86-.56-.81-1.02-.19-2.16-1.57-1.31-.46.95-.39-.33-.36.03-.1.92-.72.06-.17,2.19,1.31.43.85-.62-.23-.52.49-.59,1.69,2.75-1.47-.23,1.04,1.54.69-.42.1-.92ZM63.16,122.73l-.03-.36-.56-.13-.49.59.03.36,1.05-.45ZM111.41,66.81l-.95-.46-2.69,2.41,1.89.92,1.71-1.24-.03-.36.16-.2-.09-1.08ZM74.68,111.38l-1.21-1.35-2.33,2.38.75.3,1.51-1.4,1.28.07ZM78.09,110.9l-.55-2.13-2.36.02,2.58,2.5.33-.39ZM87.66,95.92l.07-1.28-.36.03-.46.95.75.3ZM114.04,63.68l-.13.56.23.52.56.13,1.02-.81.1-.92-.92-.1-.85.62ZM84.7,99.44l1.47.23,1.27,2.07.56.13.33-.39.62.85.56.13.91,2.1,2.39.34-5.18-5.35,1.21-.65.2.16,2.79-1.33-.4,1.67,2.36-2.02-.03-.36,1.21-.65-5.69-.77-1.17-.99.32,1.6-.33.39-.1.92-3.28,1.92ZM68.08,118.85l.75.3,1.54-1.04-.13-1.44-.95,1.53-.72.06-.49.59ZM97.55,84.53l.42.69.39.33.82-.98-.42-.69-.92-.1-.3.75ZM113.64,67.34l-.95-.46-.36.03-.33.39.06,2.72.2.16.36-.03,1.02-2.81ZM61.56,129.4l.13-.56-.2-.16-.92-.1.06.72.92.1ZM112.64,72.51l.27-1.11-1.47-.23-2.62,1.14.45,1.05,1.86.56,1.51-1.4ZM90.48,94.95l.88-.26.49-.59-.59-.49-.85.62.06.72ZM75.46,114.04l-.03-.36-.2-.16-.92-.1-.49.59.75.3.88-.26ZM117.18,64.31l-.3.75.78.66.33-.39.07-1.28-.88.26ZM102.76,81.9l-.16.2-.03-.36.2.16ZM107.32,78.05l.16-.2-.56-.13-.82.98,1.24-.29-.03-.36ZM73.94,117.43l-.85.62.78.66,1.47.23,1.35-1.21-2.49.58-.26-.88ZM68.67,127.69l-.09-1.08-.62-.85-1.11-.27-.46.95.59.49.72-.06.98.82ZM81.39,111.34l-.78-.66-.72.06-.49.59h2ZM77.81,114.01l-.85.62-.3.75.2.16.36-.03.49-.59.1-.92ZM101.92,88.87l-.16.2-.2-.16.36-.03ZM95.33,102.68l1.12-1.73-3.07-1.91.13,1.44,1.64.04.2.16v2ZM67.57,133.77l.13-.56-.42-.69-.23-.52-.33.39.13,1.44.72-.06ZM99.08,95.83l-.56-.13-.69.42-.13.56.45,1.05,3.63.05-.03-.36-2.68-1.58ZM99.71,103.03l1.06-2.45-1.66-2.39-1.44.13-.63,1.14,2.15,1.81.52,1.77ZM92.39,108.56l-.45-1.05-.98-.82-.85.62,2.29,1.25ZM93.88,113.15l-.81-1.02,1.31-1.57.23-1.47-3.54,1.03.06.72.78.66.49,1.41,1.47.23ZM95.54,107.2l-.78-.66-.85.62.98.82.72-.06-.06-.72ZM103.17,96.92l.97,4.81,1.24-.29.89-2.25-1.63-2.03-1.47-.23ZM109.67,107.05l.27-1.11-.42-.69-.88.26-.75-.3,1.98-4.35-.45-1.05,1.25-2.29-4.54-2.14.52,1.77.98.82,1.2,3.34-6,3.97-2.39-.34.81,3.01,2.85-.61-.29-1.24,1.38-.85,1.82,2.2,2.68-.42ZM99.57,105.58l-.26-.88-.72.06-.27,1.11.62.85.63-1.14ZM104.07,109.36l-.06-.72-1.47-.23-1.38.85-3.5-.6-.49.59.49,1.41.72-.06,1.35-1.21.78.66,3.57-.68ZM98.69,114.18l-.55-2.13-1.14-.63-1.08.09-.27,1.11-.2-.16-.99,1.17-.88.26-.3.75.59.49,4.32-.38.49-.59ZM102.56,112.75l-.16-1.8-.36.03-.85.62-.1.92-.33.39.03.36-1.05.45.09,1.08.92.1.46-.95.36-.03.99-1.17ZM111.87,105.23l-.29-1.24-.75-.3-.13.56.23.52.95.46ZM104.48,114.04l-.13.56.42.69.56.13.82-.98-.23-.52-.75-.3-.69.42ZM106.94,121.44l.3-.75-.81-1.02,1.71-3.23-3.96.35-.42-.69-.72.06-.3.75.95.46.26.88.78.66-.63,1.14.62.85,2.22.53ZM110.95,107.12l.23.52.75.3.88-.26.49-.59-1.34-.79-1.02.81ZM110.97,119.82l.13-.56-.23-.52-.75-.3-1.02.81.23.52.75.3.88-.26ZM118.6,117.88l-1.21-1.35-1.41.49-4.14,4.53.09,1.08.59.49,3.91-5.06,1.11.27,1.05-.45ZM121.76,114.52l.1-.92-1.17-.99-.88.26-.1.92.62.85.75.3.69-.42ZM120.45,124.43l-1.27-2.07-.19-2.16-1.42,2.48,2.18,2.17.69-.42ZM115.82,127.56l-.03-.36-.39-.33-.85.62.23.52.56.13.49-.59ZM124.26,120.29l.52-.23-.03-.36-.2-.16-.56-.13-.69.42.95.46ZM118,131.72l-.45-1.05-1.31-.43,1.24,1.71.36-.03.16-.2ZM129.7,116.18l-.3.75.45,1.05.52-.23.13-.56-.06-.72-.39-.33-.36.03ZM122.26,128.63l.46-.95-.23-.52-.36.03-.46.95.23.52.36-.03Z"/>
</svg>